# xmcd CD database file
#
# Track frame offsets:
#	150
#	14883
#	26516
#	42075
#	57491
#	69554
#	83464
#	100260
#	111422
#	125975
#	138585
#	152022
#
# Disc length: 2157 seconds
#
# Revision: 0
# Processed by: cddbd v1.5PL3 Copyright (c) Steve Scherf et al.
# Submitted via: CDex 1.51
#
DISCID=a9086b0c
DTITLE=The Metropolitan Music Ensemble BERLIN - Irving Berlin
DYEAR=1998
DGENRE=Jazz
TTITLE0=Alexander's Ragtime Band
TTITLE1=Steppin Out With My Baby
TTITLE2=What'll I Do
TTITLE3=They Say It's Wonderful
TTITLE4=Cheek To Cheek
TTITLE5=Anything You Can Do
TTITLE6=How Deep Is The Ocean
TTITLE7=Everybody's Dong It
TTITLE8=The Girl That I Marry
TTITLE9=I Got The Sun In The Morning
TTITLE10=Blue Skies
TTITLE11=There's No Business Like Show Business
EXTD=YEAR: 1998
EXTT0=
EXTT1=
EXTT2=
EXTT3=
EXTT4=
EXTT5=
EXTT6=
EXTT7=
EXTT8=
EXTT9=
EXTT10=
EXTT11=
PLAYORDER=
